<svg xmlns="http://www.w3.org/2000/svg" version="1.1" xmlns:xlink="http://www.w3.org/1999/xlink" xmlns:svgjs="http://svgjs.dev/svgjs" width="1500" height="1500" viewBox="0 0 1500 1500"><rect width="1500" height="1500" fill="#000000"></rect><g transform="matrix(0.6666666666666666,0,0,0.6666666666666666,249.39393939393938,617.3551337524474)"><svg viewBox="0 0 396 105" data-background-color="#000000" preserveAspectRatio="xMidYMid meet" height="397" width="1500" xmlns="http://www.w3.org/2000/svg" xmlns:xlink="http://www.w3.org/1999/xlink"><g id="tight-bounds" transform="matrix(1,0,0,1,0.2400000000000091,0.12359303271921362)"><svg viewBox="0 0 395.52 104.75281393456154" height="104.75281393456154" width="395.52"><g><svg viewBox="0 0 637.0361747619054 168.717970986091" height="104.75281393456154" width="395.52"><g><rect width="5.089753188078576" height="146.4989617824234" x="408.84396122533656" y="11.109504601833791" fill="#ffffff" opacity="1" stroke-width="0" stroke="transparent" fill-opacity="1" class="rect-qz-0" data-fill-palette-color="primary" rx="1%" id="qz-0" data-palette-color="#202046"></rect></g><g transform="matrix(1,0,0,1,0,23.317751417035737)"><svg viewBox="0 0 395.52 122.08246815201952" height="122.08246815201952" width="395.52"><g id="textblocktransform"><svg viewBox="0 0 395.52 122.08246815201952" height="122.08246815201952" width="395.52" id="textblock"><g><svg viewBox="0 0 395.52 56.43928745546597" height="56.43928745546597" width="395.52"><g transform="matrix(1,0,0,1,0,0)"><svg width="395.52" viewBox="-0.45 -37.1 266.63 38.050000000000004" height="56.43928745546597" data-palette-color="#202046"><path d="M16.1-0.25L12.9 0.85Q12.9 0.85 12.55-0.28 12.2-1.4 11.6-3.4 11-5.4 10.15-8.08 9.3-10.75 8.35-13.85 7.4-16.95 6.35-20.25 5.3-23.55 4.25-26.8L4.25-26.8Q3.8-28.25 2.7-28.93 1.6-29.6-0.35-29.65L-0.35-29.65-0.45-29.85-0.1-32Q-0.1-32 0.55-31.98 1.2-31.95 2.15-31.93 3.1-31.9 4.08-31.88 5.05-31.85 5.7-31.85L5.7-31.85Q6.7-31.85 7.98-31.93 9.25-32 10.45-32.13 11.65-32.25 12.43-32.33 13.2-32.4 13.2-32.4L13.2-32.4 13.35-32.05 13.15-30.1Q11.4-30 10.43-29.78 9.45-29.55 9.08-29.15 8.7-28.75 8.7-28L8.7-28Q8.7-27.65 9.05-26.23 9.4-24.8 9.95-22.73 10.5-20.65 11.18-18.23 11.85-15.8 12.53-13.45 13.2-11.1 13.75-9.15 14.3-7.2 14.65-6.03 15-4.85 15-4.85L15-4.85 15.45-4.85Q16.1-6.55 16.95-8.78 17.8-11 18.75-13.45 19.7-15.9 20.58-18.3 21.45-20.7 22.18-22.73 22.9-24.75 23.33-26.13 23.75-27.5 23.75-27.85L23.75-27.85Q23.75-28.9 22.95-29.38 22.15-29.85 20.3-29.85L20.3-29.85 17.7-29.85 17.6-30.05 17.9-32.2Q17.9-32.2 19-32.13 20.1-32.05 21.75-31.95 23.4-31.85 25.05-31.85L25.05-31.85Q26.25-31.85 27.53-31.88 28.8-31.9 29.68-31.95 30.55-32 30.55-32L30.55-32 30.15-29.65Q28.6-29.6 28-29.15 27.4-28.7 26.85-27.25L26.85-27.25 16.1-0.25ZM35.55 0.6L35.55 0.6Q33.75 0.6 32.4 0.33 31.05 0.05 30.32-0.2 29.6-0.45 29.6-0.45L29.6-0.45 29.45-0.8Q29.55-1.35 29.67-2.63 29.8-3.9 29.92-5.3 30.05-6.7 30.05-7.5L30.05-7.5 31.8-7.75Q31.8-4.45 32.9-3.1 34-1.75 36.65-1.75L36.65-1.75Q38.55-1.75 39.85-2.6 41.15-3.45 41.15-4.7L41.15-4.7Q41.15-5.55 40.65-6.25 40.15-6.95 38.9-7.8 37.65-8.65 35.35-9.85L35.35-9.85Q32.5-11.3 31.2-12.8 29.9-14.3 29.9-16.1L29.9-16.1Q29.9-18.15 31.1-19.75 32.3-21.35 34.4-22.28 36.5-23.2 39.1-23.2L39.1-23.2Q41.15-23.2 42.62-22.8 44.1-22.4 44.1-22.4L44.1-22.4 44.2-22.15Q44.2-22.15 44.02-21.3 43.85-20.45 43.62-19.07 43.4-17.7 43.25-16.05L43.25-16.05 41.4-15.9Q41.4-15.9 41.45-16.45 41.5-17 41.5-17.35L41.5-17.35Q41.5-19.15 40.52-19.98 39.55-20.8 37.4-20.8L37.4-20.8Q35.7-20.8 34.52-20 33.35-19.2 33.35-18.05L33.35-18.05Q33.35-16.85 34.37-15.8 35.4-14.75 37.7-13.55L37.7-13.55Q40.4-12.15 41.92-11.03 43.45-9.9 44.07-8.85 44.7-7.8 44.7-6.55L44.7-6.55Q44.7-4.65 43.42-3 42.15-1.35 40.07-0.38 38 0.6 35.55 0.6ZM59.39 0.6L59.39 0.6Q56.24 0.6 53.89-0.8 51.55-2.2 50.22-4.67 48.89-7.15 48.89-10.45L48.89-10.45Q48.89-13 49.77-15.3 50.64-17.6 52.2-19.38 53.74-21.15 55.72-22.18 57.7-23.2 59.95-23.2L59.95-23.2Q67.39-23.2 67.39-15.95L67.39-15.95Q67.39-15.3 67.3-14.6 67.19-13.9 67.09-13.5L67.09-13.5 66.44-12.9 52.64-12.9Q52.59-8.45 54.27-5.88 55.95-3.3 58.99-2.88 62.05-2.45 66.19-4.35L66.19-4.35 66.5-4.25 67.05-2.8Q66.05-2.1 64.67-1.3 63.3-0.5 61.89 0.05 60.49 0.6 59.39 0.6ZM52.84-14.75L52.84-14.75 61.89-15.2Q62.64-15.3 62.89-15.55 63.14-15.8 63.14-16.55L63.14-16.55Q63.14-18.55 62.07-19.6 60.99-20.65 58.99-20.65L58.99-20.65Q56.7-20.65 54.99-19.07 53.3-17.5 52.84-14.75ZM81.39 0L78.59 0.85Q78.59 0.85 78.24-0.25 77.89-1.35 77.34-3.15 76.79-4.95 76.09-7.1 75.39-9.25 74.72-11.43 74.04-13.6 73.44-15.43 72.84-17.25 72.49-18.3L72.49-18.3Q71.64-20.7 69.09-20.8L69.09-20.8 68.99-21 69.29-22.65Q69.29-22.65 70.09-22.65 70.89-22.65 71.89-22.63 72.89-22.6 73.44-22.6L73.44-22.6Q74.99-22.6 76.34-22.7 77.69-22.8 78.57-22.88 79.44-22.95 79.44-22.95L79.44-22.95 79.54-22.7 79.24-21.15Q77.54-21.1 76.92-20.83 76.29-20.55 76.29-19.85L76.29-19.85Q76.29-19.5 76.59-18.23 76.89-16.95 77.39-15.18 77.89-13.4 78.42-11.53 78.94-9.65 79.44-8 79.94-6.35 80.24-5.33 80.54-4.3 80.54-4.3L80.54-4.3 80.74-4.3Q82.59-8.9 83.92-12.1 85.24-15.3 85.94-17.15 86.64-19 86.64-19.6L86.64-19.6Q86.64-20.3 86.17-20.55 85.69-20.8 84.49-20.8L84.49-20.8 82.59-20.8 82.39-21.1 82.64-22.65Q82.64-22.65 83.47-22.65 84.29-22.65 85.54-22.63 86.79-22.6 87.99-22.6L87.99-22.6Q88.89-22.6 89.84-22.63 90.79-22.65 91.44-22.65 92.09-22.65 92.09-22.65L92.09-22.65 91.74-20.8Q90.69-20.65 90.09-19.95 89.49-19.25 88.54-17.05L88.54-17.05 81.39 0ZM102.44 0.6L102.44 0.6Q99.59 0.6 97.39-0.8 95.19-2.2 93.97-4.73 92.74-7.25 92.74-10.5L92.74-10.5Q92.74-14.1 94.27-16.98 95.79-19.85 98.44-21.53 101.09-23.2 104.34-23.2L104.34-23.2Q107.19-23.2 109.39-21.8 111.59-20.4 112.82-17.9 114.04-15.4 114.04-12.1L114.04-12.1Q114.04-8.55 112.52-5.65 110.99-2.75 108.37-1.07 105.74 0.6 102.44 0.6ZM103.84-1.85L103.84-1.85Q106.64-1.85 108.29-4.13 109.94-6.4 109.94-10.3L109.94-10.3Q109.94-13.3 109.04-15.6 108.14-17.9 106.54-19.2 104.94-20.5 102.84-20.5L102.84-20.5Q100.04-20.5 98.39-18.2 96.74-15.9 96.74-11.95L96.74-11.95Q96.74-8.95 97.64-6.68 98.54-4.4 100.14-3.13 101.74-1.85 103.84-1.85ZM117.19 0.6L117.19 0.6 117.39-1.45Q118.84-1.85 119.41-2.48 119.99-3.1 120.09-4.15 120.19-5.2 120.19-6.75L120.19-6.75 120.19-31.3Q120.19-32.55 119.96-33.13 119.74-33.7 119.11-33.85 118.49-34 117.24-33.85L117.24-33.85 117.09-33.95 117.29-35.65Q119.14-35.9 120.99-36.25 122.84-36.6 124.69-37.1L124.69-37.1 124.99-36.45Q124.79-36.1 124.59-34.18 124.39-32.25 124.21-29.13 124.04-26 123.89-22.05 123.74-18.1 123.66-13.7 123.59-9.3 123.59-4.9L123.59-4.9Q123.59-3.4 123.99-2.75 124.39-2.1 125.34-2.1L125.34-2.1 127.09-2.2 127.19-2 126.79 0.15Q125.99 0.1 124.66 0.05 123.34 0 122.34 0L122.34 0Q121.44 0 120.06 0.18 118.69 0.35 117.19 0.6ZM139.54 0.6L139.54 0.6Q136.69 0.6 134.49-0.8 132.29-2.2 131.06-4.73 129.84-7.25 129.84-10.5L129.84-10.5Q129.84-14.1 131.36-16.98 132.89-19.85 135.54-21.53 138.19-23.2 141.44-23.2L141.44-23.2Q144.29-23.2 146.49-21.8 148.69-20.4 149.91-17.9 151.14-15.4 151.14-12.1L151.14-12.1Q151.14-8.55 149.61-5.65 148.09-2.75 145.46-1.07 142.84 0.6 139.54 0.6ZM140.94-1.85L140.94-1.85Q143.74-1.85 145.39-4.13 147.04-6.4 147.04-10.3L147.04-10.3Q147.04-13.3 146.14-15.6 145.24-17.9 143.64-19.2 142.04-20.5 139.94-20.5L139.94-20.5Q137.14-20.5 135.49-18.2 133.84-15.9 133.84-11.95L133.84-11.95Q133.84-8.95 134.74-6.68 135.64-4.4 137.24-3.13 138.84-1.85 140.94-1.85ZM175.43 0.6L175.43 0.6Q171.53 0.6 170.98-2.95L170.98-2.95 170.63-3.1Q168.03-1.35 166.48-0.45 164.93 0.45 164.38 0.45L164.38 0.45Q161.53 0.45 159.36-0.88 157.18-2.2 155.96-4.58 154.73-6.95 154.73-10.1L154.73-10.1Q154.73-13.7 156.41-16.68 158.08-19.65 160.93-21.43 163.78-23.2 167.18-23.2L167.18-23.2Q167.88-23.2 168.73-23.15 169.58-23.1 170.63-23L170.63-23 170.63-31.3Q170.63-32.7 170.18-33.35 169.73-34 168.78-34L168.78-34Q168.38-34 167.96-33.9 167.53-33.8 167.53-33.8L167.53-33.8 167.73-35.65Q169.03-35.8 170.33-36.05 171.63-36.3 172.73-36.55 173.83-36.8 174.48-36.95 175.13-37.1 175.13-37.1L175.13-37.1 175.43-36.45Q175.23-36.1 175.03-34.2 174.83-32.3 174.66-29.2 174.48-26.1 174.33-22.23 174.18-18.35 174.11-14 174.03-9.65 174.03-5.25L174.03-5.25Q174.03-4.15 174.58-3.55 175.13-2.95 176.08-2.95L176.08-2.95Q176.88-2.95 177.56-3.28 178.23-3.6 178.66-3.9 179.08-4.2 179.08-4.2L179.08-4.2 179.78-3.4Q179.78-3.4 179.43-2.9 179.08-2.4 178.48-1.68 177.88-0.95 177.11-0.3 176.33 0.35 175.43 0.6ZM165.18-2.8L165.18-2.8Q166.08-2.8 167.03-3.2 167.98-3.6 168.81-4.13 169.63-4.65 170.13-5.05 170.63-5.45 170.63-5.45L170.63-5.45 170.63-19.15Q170.63-19.15 169.33-19.73 168.03-20.3 165.78-20.3L165.78-20.3Q162.43-20.3 160.51-18.03 158.58-15.75 158.58-11.8L158.58-11.8Q158.58-9.3 159.46-7.25 160.33-5.2 161.83-4 163.33-2.8 165.18-2.8ZM200.83 0.6L199.63 0.95Q198.03-3.55 196.43-8.05 194.83-12.55 193.23-17.03 191.63-21.5 190.03-26L190.03-26 189.78-26Q189.78-26 189.66-24.48 189.53-22.95 189.33-20.53 189.13-18.1 188.88-15.35 188.63-12.6 188.43-10.08 188.23-7.55 188.11-5.83 187.98-4.1 187.98-3.75L187.98-3.75Q187.98-2.2 189.53-2.2L189.53-2.2Q189.93-2.2 190.76-2.23 191.58-2.25 191.58-2.25L191.58-2.25 191.68-2.05 191.23 0.2Q191.23 0.2 190.36 0.15 189.48 0.1 188.36 0.05 187.23 0 186.38 0L186.38 0Q185.63 0 184.88 0.05 184.13 0.1 183.48 0.2 182.83 0.3 182.46 0.35 182.08 0.4 182.08 0.4L182.08 0.4 182.33-1.9Q183.93-2.1 184.63-2.93 185.33-3.75 185.53-5.75L185.53-5.75Q185.63-6.65 185.83-8.47 186.03-10.3 186.28-12.63 186.53-14.95 186.76-17.35 186.98-19.75 187.21-21.9 187.43-24.05 187.56-25.53 187.68-27 187.68-27.35L187.68-27.35Q187.68-28.25 187.23-28.8 186.78-29.35 185.83-29.68 184.88-30 183.38-30.1L183.38-30.1 183.23-30.35 183.63-32.1Q183.63-32.1 184.66-32.05 185.68-32 186.98-31.93 188.28-31.85 189.08-31.85L189.08-31.85Q189.83-31.85 190.61-31.9 191.38-31.95 191.93-32 192.48-32.05 192.48-32.05L192.48-32.05Q194.18-26.6 195.71-22.05 197.23-17.5 198.41-14.2 199.58-10.9 200.26-9.08 200.93-7.25 200.93-7.25L200.93-7.25 201.18-7.25Q201.18-7.25 201.86-9.08 202.53-10.9 203.73-14.23 204.93-17.55 206.48-22.05 208.03-26.55 209.83-31.95L209.83-31.95Q209.83-32 210.46-31.95 211.08-31.9 211.86-31.88 212.63-31.85 213.13-31.85L213.13-31.85Q213.88-31.85 215.18-31.93 216.48-32 217.51-32.08 218.53-32.15 218.53-32.15L218.53-32.15 218.63-31.95 218.38-30.1Q216.23-29.85 215.33-29.23 214.43-28.6 214.43-27.35L214.43-27.35Q214.43-26.9 214.51-25.35 214.58-23.8 214.73-21.55 214.88-19.3 215.06-16.73 215.23-14.15 215.41-11.6 215.58-9.05 215.73-6.95L215.73-6.95Q216.08-4.05 216.53-3.13 216.98-2.2 218.18-2.2L218.18-2.2Q218.63-2.2 219.11-2.25 219.58-2.3 219.58-2.3L219.58-2.3 219.68-2.1 219.23 0.15Q219.23 0.15 218.43 0.1 217.63 0.05 216.51 0.03 215.38 0 214.48 0L214.48 0Q213.68 0 212.78 0.05 211.88 0.1 211.08 0.2 210.28 0.3 209.78 0.35 209.28 0.4 209.28 0.4L209.28 0.4 209.48-1.9Q211.03-2.1 211.73-2.7 212.43-3.3 212.43-4.4L212.43-4.4Q212.43-4.85 212.31-6.58 212.18-8.3 211.98-10.75 211.78-13.2 211.58-15.85 211.38-18.5 211.18-20.8 210.98-23.1 210.86-24.55 210.73-26 210.73-26L210.73-26 210.48-26Q209.28-22.7 208.08-19.38 206.88-16.05 205.66-12.7 204.43-9.35 203.23-6.03 202.03-2.7 200.83 0.6L200.83 0.6ZM225.43-5.2L225.63-17.35Q225.63-18.65 225.18-19.35 224.73-20.05 223.78-20.05L223.78-20.05Q223.38-20.05 222.95-19.95 222.53-19.85 222.53-19.85L222.53-19.85 222.73-21.7Q223.88-21.9 225.13-22.15 226.38-22.4 227.45-22.65 228.53-22.9 229.2-23.05 229.88-23.2 229.88-23.2L229.88-23.2 230.18-22.6Q229.93-21.95 229.7-20.38 229.48-18.8 229.28-16.7 229.08-14.6 228.98-12.28 228.88-9.95 228.88-7.75L228.88-7.75Q228.88-2.85 232.88-2.85L232.88-2.85Q234.63-2.85 236.15-3.83 237.68-4.8 238.93-5.7L238.93-5.7 238.93-17.3Q238.93-18.8 238.38-19.4 237.83-20 236.43-20L236.43-20Q236.23-20 235.73-19.98 235.23-19.95 235.23-19.95L235.23-19.95 235.43-21.75Q236.78-21.95 238.13-22.2 239.48-22.45 240.6-22.68 241.73-22.9 242.43-23.05 243.13-23.2 243.13-23.2L243.13-23.2 243.43-22.6Q243.13-21.85 242.88-19.25 242.63-16.65 242.48-12.95 242.33-9.25 242.33-5.25L242.33-5.25Q242.33-4.15 242.88-3.55 243.43-2.95 244.38-2.95L244.38-2.95Q245.18-2.95 245.85-3.28 246.53-3.6 246.95-3.9 247.38-4.2 247.38-4.2L247.38-4.2 248.08-3.4Q248.08-3.4 247.65-2.8 247.23-2.2 246.55-1.4 245.88-0.6 245.13 0 244.38 0.6 243.73 0.6L243.73 0.6Q239.68 0.6 239.28-3.45L239.28-3.45 239.03-3.55Q236.63-1.7 234.7-0.55 232.78 0.6 232.08 0.6L232.08 0.6Q228.88 0.6 227.15-0.9 225.43-2.4 225.43-5.2L225.43-5.2ZM250.88 0.2L251.13-1.8Q252.63-1.95 253.13-2.78 253.63-3.6 253.63-5.95L253.63-5.95 253.63-16.95Q253.63-18.6 253.18-19.3 252.73-20 251.73-20L251.73-20Q251.33-20 251-19.93 250.68-19.85 250.68-19.85L250.68-19.85 250.43-20.2 250.58-21.75Q252.13-22.05 253.68-22.4 255.23-22.75 256.28-23 257.33-23.25 257.33-23.25L257.33-23.25 257.68-22.95Q257.68-22.95 257.55-22.15 257.43-21.35 257.33-20.18 257.23-19 257.23-17.8L257.23-17.8 257.43-17.65Q258.98-20 260.98-21.5 262.98-23 264.48-23L264.48-23Q265.33-23 265.68-22.9 266.03-22.8 266.03-22.8L266.03-22.8 266.18-22.6Q266.18-22.6 266.08-21.93 265.98-21.25 265.83-20.18 265.68-19.1 265.55-17.85 265.43-16.6 265.38-15.45L265.38-15.45 263.43-15.3Q263.43-17.35 263.18-18.03 262.93-18.7 262.08-18.7L262.08-18.7Q260.98-18.7 259.73-17.8 258.48-16.9 257.43-15.3L257.43-15.3Q257.43-15.3 257.38-14.38 257.33-13.45 257.28-12.05 257.23-10.65 257.18-9.18 257.13-7.7 257.08-6.58 257.03-5.45 257.03-5.1L257.03-5.1Q257.03-3.4 257.53-2.8 258.03-2.2 259.43-2.2L259.43-2.2Q259.98-2.2 260.8-2.25 261.63-2.3 261.63-2.3L261.63-2.3 261.68-2.1 261.23 0.1Q261.23 0.1 260.73 0.08 260.23 0.05 259.43 0.05 258.63 0.05 257.75 0.03 256.88 0 256.13 0L256.13 0Q254.68 0 253.48 0.05 252.28 0.1 251.58 0.15 250.88 0.2 250.88 0.2L250.88 0.2Z" opacity="1" transform="matrix(1,0,0,1,0,0)" fill="#ffffff" class="wordmark-text-0" data-fill-palette-color="primary" id="text-0"></path></svg></g></svg></g><g transform="matrix(1,0,0,1,166.49348297699066,69.76324868080256)"><svg viewBox="0 0 229.02651702300932 52.319219471216954" height="52.319219471216954" width="229.02651702300932"><g transform="matrix(1,0,0,1,0,0)"><svg width="229.02651702300932" viewBox="0.5 -37.25 165.24 37.75" height="52.319219471216954" data-palette-color="#3886ce"><path d="M14.3-20.95L14.3-20.95 15.15-19.05 11.35-17.95Q12.15-16.1 12.7-14.78 13.25-13.45 13.83-12.23 14.4-11 15.18-9.53 15.95-8.05 17.15-5.9L17.15-5.9Q17.25-5.4 16.8-4.38 16.35-3.35 15.68-2.23 15-1.1 14.33-0.33 13.65 0.45 13.25 0.45L13.25 0.45Q11.9-2.3 10.78-4.55 9.65-6.8 8.63-8.85 7.6-10.9 6.45-13.1 5.3-15.3 3.85-17.95L3.85-17.95 0.5-19.05 1-20.95Q2.5-20.9 3.93-20.85 5.35-20.8 7.25-20.8L7.25-20.8Q9.35-20.8 11.15-20.85 12.95-20.9 14.3-20.95ZM28.15-20.95L28.15-20.95 28.95-19.05 25.2-17.95Q23.3-14.4 21.98-11.48 20.65-8.55 19.45-5.7 18.25-2.85 16.8 0.45L16.8 0.45 13.25 0.45Q15.35-3.85 17.28-8.28 19.2-12.7 20.75-17.95L20.75-17.95 16.9-19.05 17.65-20.95Q19.25-20.9 20.48-20.85 21.7-20.8 23-20.8L23-20.8Q24.7-20.8 25.75-20.85 26.8-20.9 28.15-20.95ZM40.6-21.85L40.6-21.85Q43.1-21.85 45.22-20.75 47.35-19.65 48.62-17.43 49.9-15.2 49.9-11.85L49.9-11.85Q48.8-11.65 47-11.5 45.2-11.35 43.05-11.28 40.9-11.2 38.75-11.2L38.75-11.2Q37.15-11.2 36-11.25 34.85-11.3 34.45-11.35L34.45-11.35 34.45-13.75Q35-13.75 36.12-13.75 37.25-13.75 38.65-13.8 40.05-13.85 41.37-13.95 42.7-14.05 43.6-14.2L43.6-14.2Q43.55-15.25 43.02-16.32 42.5-17.4 41.45-18.15 40.4-18.9 38.75-18.9L38.75-18.9Q37.75-17.95 37.15-16.28 36.55-14.6 36.55-12.4L36.55-12.4Q36.55-7.9 38.42-5.78 40.3-3.65 43.05-3.65L43.05-3.65Q45.85-3.65 48.95-5.65L48.95-5.65 50.05-3.35Q47.9-1.4 45.45-0.55 43 0.3 40.6 0.3L40.6 0.3Q37.8 0.3 35.37-0.93 32.95-2.15 31.47-4.6 30-7.05 30-10.7L30-10.7Q30-14.4 31.52-16.88 33.05-19.35 35.47-20.6 37.9-21.85 40.6-21.85ZM62.35-21.7L62.35-21.7Q62.4-20.55 62.5-19 62.6-17.45 62.7-16.18 62.8-14.9 62.8-14.45L62.8-14.45 63.15-3.1 68.1-1.85 67.35 0Q66.5-0.05 65.1-0.08 63.7-0.1 62.2-0.13 60.7-0.15 59.5-0.15L59.5-0.15Q57.95-0.15 56.15-0.1 54.35-0.05 52.85 0L52.85 0 52.1-1.85 56.15-2.9Q56.15-5.15 56.15-6.93 56.15-8.7 56.15-10.8L56.15-10.8Q56.15-11.95 56.12-12.93 56.1-13.9 56.05-15.13 56-16.35 55.85-18.15L55.85-18.15 52.45-18.7 51.75-20.8Q52.9-20.85 54.82-20.95 56.75-21.05 58.8-21.25 60.85-21.45 62.35-21.7ZM69.05-21.8L69.05-21.8Q70.45-21.8 71.65-21.28 72.85-20.75 73.95-19.6L73.95-19.6Q73.65-18.1 73.4-17 73.15-15.9 72.82-14.83 72.5-13.75 72.05-12.2L72.05-12.2 69.25-12.2Q68.9-14.05 68.22-15.43 67.55-16.8 66.4-17.3L66.4-17.3Q65.15-16.5 64.02-14.33 62.9-12.15 62.9-8.55L62.9-8.55 60.95-11.45Q61.35-14.25 62.5-16.6 63.65-18.95 65.32-20.38 67-21.8 69.05-21.8ZM76.34-1.3L76.34-1.3Q76.74-3.2 77.02-4.48 77.29-5.75 77.49-7.25L77.49-7.25 79.99-7.25 80.79-3.35Q81.44-2.8 82.34-2.5 83.24-2.2 84.14-2.2L84.14-2.2Q85.39-2.2 86.37-2.8 87.34-3.4 87.34-4.65L87.34-4.65Q87.34-5.7 86.57-6.38 85.79-7.05 84.59-7.58 83.39-8.1 82.04-8.63 80.69-9.15 79.49-9.95 78.29-10.75 77.52-11.95 76.74-13.15 76.74-15L76.74-15Q76.74-17.55 77.99-19.03 79.24-20.5 81.27-21.15 83.29-21.8 85.54-21.8L85.54-21.8Q87.29-21.8 89.19-21.4 91.09-21 92.64-20.25L92.64-20.25Q92.24-18.5 91.92-17.15 91.59-15.8 91.34-14.5L91.34-14.5 88.74-14.55 88.09-17.95Q87.19-19.15 85.14-19.15L85.14-19.15Q84.04-19.15 83.12-18.65 82.19-18.15 82.19-17L82.19-17Q82.19-15.9 82.99-15.23 83.79-14.55 85.07-14.05 86.34-13.55 87.79-12.98 89.24-12.4 90.52-11.55 91.79-10.7 92.59-9.38 93.39-8.05 93.39-6L93.39-6Q93.39-3.6 92.09-2.18 90.79-0.75 88.64-0.13 86.49 0.5 83.99 0.5L83.99 0.5Q82.09 0.5 80.14 0.1 78.19-0.3 76.34-1.3ZM104.39-27.6L104.39-27.6Q104.29-25.85 104.24-23.53 104.19-21.2 104.17-18.73 104.14-16.25 104.17-14 104.19-11.75 104.22-10.1 104.24-8.45 104.29-7.8L104.29-7.8Q104.39-5.95 104.94-5.2 105.49-4.45 106.69-4.45L106.69-4.45Q107.54-4.45 108.49-4.75 109.44-5.05 110.99-6L110.99-6 111.99-4Q110.74-2.95 109.32-1.9 107.89-0.85 106.22-0.18 104.54 0.5 102.49 0.5L102.49 0.5Q101.34 0.5 100.24 0.03 99.14-0.45 98.47-1.63 97.79-2.8 97.79-4.8L97.79-4.8Q97.79-4.75 97.82-5.7 97.84-6.65 97.87-8.22 97.89-9.8 97.94-11.55 97.99-13.3 98.02-14.85 98.04-16.4 98.07-17.38 98.09-18.35 98.09-18.25L98.09-18.25Q98.04-18.8 97.47-19.2 96.89-19.6 96.14-19.9 95.39-20.2 94.79-20.45 94.19-20.7 94.14-21L94.14-21Q95.34-21.2 96.19-21.4 97.04-21.6 98.04-21.85L98.04-21.85Q99.14-23.3 100.02-24.58 100.89-25.85 102.04-27.6L102.04-27.6Q102.49-27.6 103.19-27.6 103.89-27.6 104.39-27.6ZM94.14-21L111.29-21.05 111.29-17.4 94.14-18.4 94.14-21ZM123.29-37.25L123.29-37.25Q123.29-36 123.29-33.25 123.29-30.5 123.26-27 123.24-23.5 123.21-19.88 123.19-16.25 123.19-13.2L123.19-13.2 123.44-2.9 126.84-1.85 126.09 0Q124.24-0.1 122.76-0.13 121.29-0.15 119.54-0.15L119.54-0.15Q117.54-0.15 115.91-0.13 114.29-0.1 112.64 0L112.64 0 111.79-1.85 116.09-2.9Q116.39-8.55 116.39-14.65L116.39-14.65Q116.39-20.25 116.29-25.08 116.19-29.9 115.89-33.65L115.89-33.65 111.89-34.3 111.44-36.35Q112.29-36.4 113.79-36.5 115.29-36.6 117.04-36.73 118.79-36.85 120.44-36.98 122.09-37.1 123.29-37.25ZM123.69-10.95L123.69-10.95Q124.99-12.25 126.04-13.23 127.09-14.2 128.09-15.35 129.09-16.5 130.24-18.15L130.24-18.15 126.09-19.2 126.69-21.05Q128.24-21 129.71-20.95 131.19-20.9 132.99-20.9L132.99-20.9Q136.24-20.9 138.84-21.05L138.84-21.05 139.54-19.2 135.39-18.2Q133.49-16.55 132.26-15.45 131.04-14.35 130.01-13.33 128.99-12.3 127.59-10.95L127.59-10.95 129.34-13.6Q130.89-11.05 131.91-9.35 132.94-7.65 133.99-6.2 135.04-4.75 136.54-2.9L136.54-2.9 140.39-1.85 139.89 0Q138.49-0.1 137.26-0.1 136.04-0.1 134.59-0.1L134.59-0.1Q133.19-0.1 131.96-0.1 130.74-0.1 129.54 0L129.54 0Q128.09-2.6 126.76-5.25 125.44-7.9 123.69-10.95ZM155.34-21.8L155.34-21.8Q157.99-21.8 159.94-20.18 161.89-18.55 161.89-15.25L161.89-15.25Q161.89-13.1 161.81-11.65 161.74-10.2 161.66-9.08 161.59-7.95 161.59-6.75L161.59-6.75Q161.59-5.35 161.76-4.78 161.94-4.2 162.74-4.2L162.74-4.2Q163.44-4.2 164.84-4.85L164.84-4.85 165.74-2.65Q163.94-1.4 162.29-0.58 160.64 0.25 158.79 0.25L158.79 0.25Q157.24 0.25 156.09-0.98 154.94-2.2 154.94-4.85L154.94-4.85Q154.94-7.3 155.16-9.68 155.39-12.05 155.39-13.9L155.39-13.9Q155.39-15.45 154.94-16.4 154.49-17.35 153.44-17.7L153.44-17.7Q151.14-17.6 149.04-16.85 146.94-16.1 144.74-14.95L144.74-14.95 143.44-17.1Q146.29-19.2 149.21-20.5 152.14-21.8 155.34-21.8ZM158.89-13.95L158.89-13.95 155.89-9.8Q154.79-9.55 153.94-9.3 153.09-9.05 152.39-8.9L152.39-8.9Q150.69-8.55 150.04-8.03 149.39-7.5 149.39-6.2L149.39-6.2Q149.39-5.15 149.94-4.55 150.49-3.95 151.44-3.95L151.44-3.95Q152.59-3.95 154.36-5.03 156.14-6.1 157.39-7.75L157.39-7.75 158.34-5.7Q157.54-4.7 156.06-3.25 154.59-1.8 152.54-0.68 150.49 0.45 148.04 0.45L148.04 0.45Q146.79 0.45 145.61-0.23 144.44-0.9 143.66-2.25 142.89-3.6 142.89-5.6L142.89-5.6Q142.89-7.7 144.16-8.88 145.44-10.05 147.64-10.7 149.84-11.35 152.49-11.8L152.49-11.8Q154.29-12.1 155.84-12.58 157.39-13.05 158.89-13.95Z" opacity="1" transform="matrix(1,0,0,1,0,0)" fill="#ffffff" class="slogan-text-1" data-fill-palette-color="secondary" id="text-1"></path></svg></g></svg></g></svg></g></svg></g><g transform="matrix(1,0,0,1,427.2576756387517,0)"><svg viewBox="0 0 209.77849912315364 168.717970986091" height="168.717970986091" width="209.77849912315364"><g><svg xmlns="http://www.w3.org/2000/svg" xmlns:xlink="http://www.w3.org/1999/xlink" version="1.1" x="0" y="0" viewBox="0 9.786 100.00034525290006 80.42699999999999" enable-background="new 0 0 100 100" xml:space="preserve" width="209.77849912315364" height="168.717970986091" class="icon-icon-0" data-fill-palette-color="accent" id="icon-0"><path d="M49.942 52.994c13.552-0.488 27.103-0.977 40.653-1.465-2.527-4.177-3.159-7.831-7.989-8.461-7.229-0.94-14.458-1.883-21.688-2.826-14.023-1.827-28.05-3.654-42.075-5.48C20.101 36.792 39.724 53.361 49.942 52.994z" fill="#ffffff" data-fill-palette-color="accent"></path><path d="M0 9.786c4.391 7.257 26.615 23.072 32.953 23.886 17.33 2.231 34.657 4.46 51.986 6.688-3.393-5.607-4.18-9.35-10.312-10.959-8.904-2.341-17.812-4.683-26.717-7.023C31.94 18.182 15.97 13.984 0 9.786z" fill="#ffffff" data-fill-palette-color="accent"></path><path d="M63.108 66.207c10.413-2.219 20.826-4.439 31.241-6.66-2.028-3.346-2.034-5.359-5.827-5.189-6.158 0.273-12.314 0.549-18.471 0.822-11.343 0.506-22.686 1.014-34.028 1.518C37.298 58.064 54.94 67.947 63.108 66.207z" fill="#ffffff" data-fill-palette-color="accent"></path><path d="M87.682 90.213c5.725-3.719 7.262-7.721 10.519-13.807 3.651-6.824 1.257-7.844-2.821-14.596-0.417-0.688-5.842 0.232-6.453 0.904-0.745 0.818-0.248 5.455-0.294 6.496C88.315 76.211 87.998 83.213 87.682 90.213z" fill="#ffffff" data-fill-palette-color="accent"></path><path d="M86.35 63.447c-3.795 0.809-8.604 0.191-9.572 4.229-1.373 5.736-2.746 11.475-4.12 17.211C81.904 82.678 86.028 71.582 86.35 63.447z" fill="#ffffff" data-fill-palette-color="accent"></path><path d="M74.666 66.121c-9.148 1.953-8.956 4.611-12.879 13.18C68.007 78.711 73.811 71.941 74.666 66.121z" fill="#ffffff" data-fill-palette-color="accent"></path></svg></g></svg></g></svg></g><defs></defs></svg><rect width="395.52" height="104.75281393456154" fill="none" stroke="none" visibility="hidden"></rect></g></svg></g></svg>